{
  "accessors": [
    {
      "bufferView": 2,
      "componentType": 5126,
      "count": 10402,
      "max": [
        127.5057601928711,
        23.905860900878906,
        201.39991760253906
      ],
      "min": [
        -127.61400604248047,
        -30.9511775970459,
        -0.04174700006842613
      ],
      "type": "VEC3"
    },
    {
      "bufferView": 2,
      "byteOffset": 124824,
      "componentType": 5126,
      "count": 10402,
      "max": [
        0.9999560117721558,
        0.9998418688774109,
        0.9998165369033813
      ],
      "min": [
        -0.9998972415924072,
        -0.999883234500885,
        -0.9999902248382568
      ],
      "type": "VEC3"
    },
    {
      "bufferView": 3,
      "componentType": 5126,
      "count": 10402,
      "max": [
        0.9999999403953552,
        0.9998285174369812,
        0.9995946288108826,
        1.0
      ],
      "min": [
        -0.9999918937683105,
        -0.9999537467956543,
        -0.999997079372406,
        -1.0
      ],
      "type": "VEC4"
    },
    {
      "bufferView": 1,
      "componentType": 5126,
      "count": 10402,
      "max": [
        0.9924700260162354,
        0.9978560209274292
      ],
      "min": [
        0.004989999812096357,
        0.008089999668300152
      ],
      "type": "VEC2"
    },
    {
      "bufferView": 0,
      "componentType": 5125,
      "count": 54918,
      "type": "SCALAR"
    },
    {
      "bufferView": 2,
      "byteOffset": 249648,
      "componentType": 5126,
      "count": 902,
      "max": [
        5.519577980041504,
        -11.446456909179688,
        192.7888641357422
      ],
      "min": [
        -5.126142978668213,
        -15.705405235290527,
        190.23471069335938
      ],
      "type": "VEC3"
    },
    {
      "bufferView": 2,
      "byteOffset": 260472,
      "componentType": 5126,
      "count": 902,
      "max": [
        0.997763991355896,
        0.9999407529830933,
        0.9991788864135742
      ],
      "min": [
        -0.997764527797699,
        -0.9965824484825134,
        -0.999177873134613
      ],
      "type": "VEC3"
    },
    {
      "bufferView": 3,
      "byteOffset": 166432,
      "componentType": 5126,
      "count": 902,
      "max": [
        0.9988452792167664,
        0.9986809492111206,
        0.6190917491912842,
        1.0
      ],
      "min": [
        -0.9999833106994629,
        -0.9990670084953308,
        -0.6839842796325684,
        1.0
      ],
      "type": "VEC4"
    },
    {
      "bufferView": 1,
      "byteOffset": 83216,
      "componentType": 5126,
      "count": 902,
      "max": [
        0.5983250141143799,
        0.9982979893684387
      ],
      "min": [
        0.501675009727478,
        0.602649986743927
      ],
      "type": "VEC2"
    },
    {
      "bufferView": 0,
      "byteOffset": 219672,
      "componentType": 5125,
      "count": 4878,
      "type": "SCALAR"
    }
  ],
  "asset": {
    "extras": {
      "author": "khuchkhana (https://sketchfab.com/khuchkhana)",
      "license": "SKETCHFAB Standard (https://sketchfab.com/licenses)",
      "source": "https://sketchfab.com/3d-models/brute-orc-4512256d9d5248aaa1828eed3e0b0aa3",
      "title": "Brute Orc"
    },
    "generator": "Sketchfab-15.49.0",
    "version": "2.0"
  },
  "bufferViews": [
    {
      "buffer": 0,
      "byteLength": 239184,
      "name": "floatBufferViews",
      "target": 34963
    },
    {
      "buffer": 0,
      "byteLength": 90432,
      "byteOffset": 239184,
      "byteStride": 8,
      "name": "floatBufferViews",
      "target": 34962
    },
    {
      "buffer": 0,
      "byteLength": 271296,
      "byteOffset": 329616,
      "byteStride": 12,
      "name": "floatBufferViews",
      "target": 34962
    },
    {
      "buffer": 0,
      "byteLength": 180864,
      "byteOffset": 600912,
      "byteStride": 16,
      "name": "floatBufferViews",
      "target": 34962
    }
  ],
  "buffers": [
    {
      "byteLength": 781776,
      "uri": "scene.bin"
    }
  ],
  "extensionsRequired": [
    "KHR_materials_pbrSpecularGlossiness"
  ],
  "extensionsUsed": [
    "KHR_materials_pbrSpecularGlossiness"
  ],
  "images": [
    {
      "uri": "textures/Body_diffuse.png"
    },
    {
      "uri": "textures/Body_specularGlossiness.png"
    },
    {
      "uri": "textures/Body_normal.png"
    }
  ],
  "materials": [
    {
      "doubleSided": true,
      "extensions": {
        "KHR_materials_pbrSpecularGlossiness": {
          "diffuseFactor": [
            1.0,
            1.0,
            1.0,
            1.0
          ],
          "diffuseTexture": {
            "index": 0
          },
          "glossinessFactor": 0.0,
          "specularFactor": [
            0.08990503590106179,
            0.08990503590106179,
            0.08990503590106179
          ],
          "specularGlossinessTexture": {
            "index": 1
          }
        }
      },
      "name": "Body",
      "normalTexture": {
        "index": 2
      }
    }
  ],
  "meshes": [
    {
      "name": "Object_0",
      "primitives": [
        {
          "attributes": {
            "NORMAL": 1,
            "POSITION": 0,
            "TANGENT": 2,
            "TEXCOORD_0": 3
          },
          "indices": 4,
          "material": 0,
          "mode": 4
        }
      ]
    },
    {
      "name": "Object_1",
      "primitives": [
        {
          "attributes": {
            "NORMAL": 6,
            "POSITION": 5,
            "TANGENT": 7,
            "TEXCOORD_0": 8
          },
          "indices": 9,
          "material": 0,
          "mode": 4
        }
      ]
    }
  ],
  "nodes": [
    {
      "children": [
        1
      ],
      "matrix": [
        1.0,
        0.0,
        0.0,
        0.0,
        0.0,
        2.220446049250313e-16,
        -1.0,
        0.0,
        0.0,
        1.0,
        2.220446049250313e-16,
        0.0,
        0.0,
        0.0,
        0.0,
        1.0
      ],
      "name": "Sketchfab_model"
    },
    {
      "children": [
        2,
        3
      ],
      "name": "Brute Orc.obj.cleaner.materialmerger.gles"
    },
    {
      "mesh": 0,
      "name": "Object_2"
    },
    {
      "mesh": 1,
      "name": "Object_3"
    }
  ],
  "samplers": [
    {
      "magFilter": 9729,
      "minFilter": 9987,
      "wrapS": 10497,
      "wrapT": 10497
    }
  ],
  "scene": 0,
  "scenes": [
    {
      "name": "Sketchfab_Scene",
      "nodes": [
        0
      ]
    }
  ],
  "textures": [
    {
      "sampler": 0,
      "source": 0
    },
    {
      "sampler": 0,
      "source": 1
    },
    {
      "sampler": 0,
      "source": 2
    }
  ]
}
